<?xml version="1.0" encoding="UTF-8"?>
<!DOCTYPE svg PUBLIC "-//W3C//DTD SVG 1.1//EN" "http://www.w3.org/Graphics/SVG/1.1/DTD/svg11.dtd">
<svg xmlns="http://www.w3.org/2000/svg" version="1.1" width="1903px" height="758px" style="shape-rendering:geometricPrecision; text-rendering:geometricPrecision; image-rendering:optimizeQuality; fill-rule:evenodd; clip-rule:evenodd" xmlns:xlink="http://www.w3.org/1999/xlink">
<g><path style="opacity:0.973" fill="#196d37" d="M 1803.5,-0.5 C 1808.17,-0.5 1812.83,-0.5 1817.5,-0.5C 1829.11,6.04671 1834.45,16.2134 1833.5,30C 1833.26,36.7819 1832.26,43.4485 1830.5,50C 1836.06,52.377 1840.9,55.877 1845,60.5C 1848.24,66.741 1849.07,73.241 1847.5,80C 1862.54,88.4098 1867.87,101.076 1863.5,118C 1867.32,125.698 1867.49,133.531 1864,141.5C 1856.25,153.914 1846.42,164.414 1834.5,173C 1849.53,168.547 1864.86,167.547 1880.5,170C 1891.31,173.321 1898.65,180.154 1902.5,190.5C 1902.5,194.167 1902.5,197.833 1902.5,201.5C 1900.95,205.576 1898.62,209.243 1895.5,212.5C 1902.44,221.086 1902.11,229.253 1894.5,237C 1899.71,247.052 1898.21,255.886 1890,263.5C 1890.26,268.209 1888.76,272.209 1885.5,275.5C 1894.9,287.092 1894.57,298.425 1884.5,309.5C 1883.32,305.496 1881.82,301.496 1880,297.5C 1877.27,294.601 1874.44,291.934 1871.5,289.5C 1871.5,287.833 1871.5,286.167 1871.5,284.5C 1871.59,281.291 1871.26,278.125 1870.5,275C 1872.99,270.534 1874.33,265.701 1874.5,260.5C 1875.15,259.551 1875.49,258.385 1875.5,257C 1875.69,254.992 1875.03,253.492 1873.5,252.5C 1872.83,251.167 1872.17,249.833 1871.5,248.5C 1877.72,249.901 1881.39,247.567 1882.5,241.5C 1882.44,238.889 1881.44,236.722 1879.5,235C 1876.37,233.218 1873.03,232.052 1869.5,231.5C 1869.5,230.833 1869.5,230.167 1869.5,229.5C 1874.23,229.777 1878.9,229.443 1883.5,228.5C 1885.63,219.438 1881.97,214.271 1872.5,213C 1868.51,212.501 1864.51,212.334 1860.5,212.5C 1861.11,211.609 1861.44,210.609 1861.5,209.5C 1870.17,210.096 1878.83,210.262 1887.5,210C 1890.88,205.207 1889.88,201.874 1884.5,200C 1877.17,199.5 1869.84,199.334 1862.5,199.5C 1862.5,198.5 1862.5,197.5 1862.5,196.5C 1868.79,197.052 1874.79,196.052 1880.5,193.5C 1880.77,189.095 1878.43,186.761 1873.5,186.5C 1868.83,187.337 1864.5,189.004 1860.5,191.5C 1859.09,191.027 1858.43,190.027 1858.5,188.5C 1863.23,186.717 1867.4,184.051 1871,180.5C 1871.78,179.056 1871.61,177.723 1870.5,176.5C 1864.22,175.374 1857.88,175.207 1851.5,176C 1848.48,176.098 1845.81,176.932 1843.5,178.5C 1837.09,176.953 1830.75,175.287 1824.5,173.5C 1823.39,175.031 1821.89,176.031 1820,176.5C 1803.76,179.631 1788.93,185.965 1775.5,195.5C 1774.48,194.998 1774.31,194.332 1775,193.5C 1786.1,178.968 1794.27,162.968 1799.5,145.5C 1801.3,140.958 1802.8,136.292 1804,131.5C 1808.22,128.634 1811.89,129.301 1815,133.5C 1817.52,127.895 1816.36,123.061 1811.5,119C 1801.77,114.03 1795.77,116.863 1793.5,127.5C 1792.52,126.859 1791.52,126.193 1790.5,125.5C 1789.75,115.228 1786.08,106.228 1779.5,98.5C 1784.85,84.789 1792.02,72.1223 1801,60.5C 1802.05,52.5615 1799.05,50.5615 1792,54.5C 1787.55,61.0583 1783.89,68.0583 1781,75.5C 1778.37,79.1317 1775.37,82.465 1772,85.5C 1770.88,87.4068 1770.04,89.4068 1769.5,91.5C 1768.51,91.6716 1767.84,91.3382 1767.5,90.5C 1770.28,79.6781 1771.11,68.6781 1770,57.5C 1767.46,56.1235 1765.46,56.7902 1764,59.5C 1760.85,65.47 1758.01,71.47 1755.5,77.5C 1753.99,75.8185 1752.99,73.8185 1752.5,71.5C 1759.05,46.9028 1771.38,25.7362 1789.5,8C 1793.83,4.47719 1798.5,1.64385 1803.5,-0.5 Z"/></g>
<g><path style="opacity:1" fill="#c7af35" d="M 1811.5,5.5 C 1815.35,5.70072 1816.35,7.53406 1814.5,11C 1810.54,11.1177 1809.54,9.28433 1811.5,5.5 Z"/></g>
<g><path style="opacity:1" fill="#cbb035" d="M 1798.5,8.5 C 1806.6,9.06756 1808.94,12.9009 1805.5,20C 1802.57,20.7772 1799.74,20.6105 1797,19.5C 1794.69,15.3741 1795.19,11.7075 1798.5,8.5 Z"/></g>
<g><path style="opacity:0.991" fill="#23ac54" d="M 1752.5,71.5 C 1752.99,73.8185 1753.99,75.8185 1755.5,77.5C 1757.12,81.3219 1758.12,85.3219 1758.5,89.5C 1761.54,89.5079 1764.54,89.8413 1767.5,90.5C 1767.84,91.3382 1768.51,91.6716 1769.5,91.5C 1772.81,93.8008 1776.14,96.1342 1779.5,98.5C 1786.08,106.228 1789.75,115.228 1790.5,125.5C 1791.52,126.193 1792.52,126.859 1793.5,127.5C 1796.93,133.111 1798.93,139.111 1799.5,145.5C 1794.27,162.968 1786.1,178.968 1775,193.5C 1774.31,194.332 1774.48,194.998 1775.5,195.5C 1788.93,185.965 1803.76,179.631 1820,176.5C 1821.89,176.031 1823.39,175.031 1824.5,173.5C 1830.75,175.287 1837.09,176.953 1843.5,178.5C 1849.33,180.583 1854.33,183.916 1858.5,188.5C 1858.43,190.027 1859.09,191.027 1860.5,191.5C 1860.4,193.553 1861.07,195.22 1862.5,196.5C 1862.5,197.5 1862.5,198.5 1862.5,199.5C 1862.66,202.902 1862.32,206.236 1861.5,209.5C 1861.44,210.609 1861.11,211.609 1860.5,212.5C 1859.38,214.052 1858.88,215.718 1859,217.5C 1864.48,219.81 1867.98,223.81 1869.5,229.5C 1869.5,230.167 1869.5,230.833 1869.5,231.5C 1869.73,235.804 1868.73,239.804 1866.5,243.5C 1867.85,245.521 1869.52,247.188 1871.5,248.5C 1872.17,249.833 1872.83,251.167 1873.5,252.5C 1874.27,255.096 1874.6,257.763 1874.5,260.5C 1874.33,265.701 1872.99,270.534 1870.5,275C 1871.26,278.125 1871.59,281.291 1871.5,284.5C 1870.52,285.765 1869.52,287.099 1868.5,288.5C 1869.32,289.386 1870.32,289.719 1871.5,289.5C 1874.44,291.934 1877.27,294.601 1880,297.5C 1881.82,301.496 1883.32,305.496 1884.5,309.5C 1884.77,324.309 1877.77,333.642 1863.5,337.5C 1859.13,353.868 1848.46,360.368 1831.5,357C 1811.19,352.596 1794.36,342.43 1781,326.5C 1776,319.5 1771,312.5 1766,305.5C 1763.23,302.22 1760.06,299.554 1756.5,297.5C 1758.86,294.241 1759.86,290.575 1759.5,286.5C 1759.33,274.807 1756.49,263.807 1751,253.5C 1747.73,244.176 1747.73,234.843 1751,225.5C 1752.8,221.578 1754.3,217.578 1755.5,213.5C 1754.45,213.351 1753.45,213.517 1752.5,214C 1743.78,223.494 1740.28,234.661 1742,247.5C 1744.33,258.117 1745.99,268.784 1747,279.5C 1744.35,280.464 1741.85,279.964 1739.5,278C 1732.91,271.076 1730.74,262.909 1733,253.5C 1733.52,246.585 1735.35,240.085 1738.5,234C 1738.17,233.5 1737.83,233 1737.5,232.5C 1723.82,244.559 1720.15,259.226 1726.5,276.5C 1722.46,274.152 1718.46,271.818 1714.5,269.5C 1711.25,264.998 1709.08,259.998 1708,254.5C 1703.59,248.714 1697.76,245.714 1690.5,245.5C 1659.83,207.493 1644.83,163.827 1645.5,114.5C 1644.73,85.8631 1650.89,58.8631 1664,33.5C 1669.37,23.129 1677.54,15.9623 1688.5,12C 1700.72,9.73916 1710.55,13.5725 1718,23.5C 1725.08,35.4856 1728.58,48.4856 1728.5,62.5C 1738.04,61.609 1746.04,64.609 1752.5,71.5 Z"/></g>
<g><path style="opacity:1" fill="#d1b334" d="M 1816.5,13.5 C 1822.91,12.7466 1825.91,15.58 1825.5,22C 1825.18,27.3258 1822.34,30.4925 1817,31.5C 1810.53,28.7393 1808.87,24.0726 1812,17.5C 1813.4,15.9297 1814.9,14.5964 1816.5,13.5 Z"/></g>
<g><path style="opacity:1" fill="#f2d536" d="M 1690.5,16.5 C 1694.68,15.8416 1696.18,17.5082 1695,21.5C 1693.33,24.1667 1691.67,24.1667 1690,21.5C 1689.36,19.735 1689.53,18.0683 1690.5,16.5 Z"/></g>
<g><path style="opacity:1" fill="#f9d734" d="M 1699.5,23.5 C 1710.57,22.9664 1714.4,27.9664 1711,38.5C 1705.63,45.064 1700.3,45.064 1695,38.5C 1694.33,35.1667 1694.33,31.8333 1695,28.5C 1696.71,26.9625 1698.21,25.2959 1699.5,23.5 Z"/></g>
<g><path style="opacity:1" fill="#f7d635" d="M 1677.5,23.5 C 1687.11,23.2542 1690.11,27.4209 1686.5,36C 1679.38,39.2745 1675.38,37.1078 1674.5,29.5C 1674.63,27.0452 1675.63,25.0452 1677.5,23.5 Z"/></g>
<g><path style="opacity:1" fill="#d2b334" d="M 1786.5,24.5 C 1790.18,24.3347 1793.85,24.5014 1797.5,25C 1799.4,26.8083 1799.9,28.975 1799,31.5C 1796.18,32.6623 1793.35,33.8289 1790.5,35C 1789.2,38.4852 1787.53,41.8185 1785.5,45C 1777.97,48.3117 1774.3,45.8117 1774.5,37.5C 1774.42,29.2546 1778.42,24.9213 1786.5,24.5 Z"/></g>
<g><path style="opacity:1" fill="#d3b434" d="M 1804.5,32.5 C 1809.22,33.3691 1812.72,36.0357 1815,40.5C 1815.67,45.1667 1815.67,49.8333 1815,54.5C 1814.61,55.428 1813.95,56.0946 1813,56.5C 1809.94,52.0813 1806.6,47.7479 1803,43.5C 1802.11,39.5979 1802.61,35.9312 1804.5,32.5 Z"/></g>
<g><path style="opacity:1" fill="#ccb135" d="M 1820.5,39.5 C 1826.55,38.9421 1827.89,41.1088 1824.5,46C 1819.57,46.427 1818.24,44.2604 1820.5,39.5 Z"/></g>
<g><path style="opacity:1" fill="#f9d734" d="M 1674.5,43.5 C 1677.58,43.2601 1680.58,43.5934 1683.5,44.5C 1684.63,46.0745 1684.8,47.7412 1684,49.5C 1681,52.1667 1678,54.8333 1675,57.5C 1674.86,61.6192 1674.19,65.6192 1673,69.5C 1665.01,74.9776 1660.01,72.9776 1658,63.5C 1657.33,60.1667 1657.33,56.8333 1658,53.5C 1658.93,51.4476 1660.43,49.9476 1662.5,49C 1666.71,47.3914 1670.71,45.5581 1674.5,43.5 Z"/></g>
<g><path style="opacity:1" fill="#f9d734" d="M 1691.5,48.5 C 1705.95,49.7895 1711.95,57.6228 1709.5,72C 1708.09,72.3152 1706.76,71.9819 1705.5,71C 1701.88,66.3847 1697.38,62.8847 1692,60.5C 1690.24,56.5397 1690.08,52.5397 1691.5,48.5 Z"/></g>
<g><path style="opacity:1" fill="#eed438" d="M 1713.5,49.5 C 1719.07,48.7532 1720.9,51.0866 1719,56.5C 1713.48,59.6659 1711.15,57.9992 1712,51.5C 1712.72,50.9558 1713.22,50.2891 1713.5,49.5 Z"/></g>
<g><path style="opacity:1" fill="#d2b434" d="M 1779.5,50.5 C 1785.2,50.1464 1787.04,52.813 1785,58.5C 1782.97,65.5605 1779.64,71.8939 1775,77.5C 1773.39,72.0096 1773.05,66.3429 1774,60.5C 1774.54,56.4096 1776.38,53.0762 1779.5,50.5 Z"/></g>
<g><path style="opacity:1" fill="#d2b434" d="M 1779.5,98.5 C 1776.14,96.1342 1772.81,93.8008 1769.5,91.5C 1770.04,89.4068 1770.88,87.4068 1772,85.5C 1775.37,82.465 1778.37,79.1317 1781,75.5C 1783.89,68.0583 1787.55,61.0583 1792,54.5C 1799.05,50.5615 1802.05,52.5615 1801,60.5C 1792.02,72.1223 1784.85,84.789 1779.5,98.5 Z"/></g>
<g><path style="opacity:1" fill="#d3b434" d="M 1767.5,90.5 C 1764.54,89.8413 1761.54,89.5079 1758.5,89.5C 1758.12,85.3219 1757.12,81.3219 1755.5,77.5C 1758.01,71.47 1760.85,65.47 1764,59.5C 1765.46,56.7902 1767.46,56.1235 1770,57.5C 1771.11,68.6781 1770.28,79.6781 1767.5,90.5 Z"/></g>
<g><path style="opacity:1" fill="#cfb234" d="M 1823.5,57.5 C 1826.94,57.3011 1830.27,57.8011 1833.5,59C 1838.42,64.7939 1837.25,68.2939 1830,69.5C 1824.77,69.3124 1821.27,66.8124 1819.5,62C 1820.34,59.9933 1821.68,58.4933 1823.5,57.5 Z"/></g>
<g><path style="opacity:1" fill="#d3b434" d="M 1805.5,63.5 C 1811.87,62.7289 1814.71,65.3956 1814,71.5C 1808.04,82.7921 1800.54,92.9588 1791.5,102C 1789.5,102.667 1787.5,102.667 1785.5,102C 1784.39,99.2628 1784.22,96.4294 1785,93.5C 1788.3,84.8929 1792.64,76.8929 1798,69.5C 1800.48,67.3606 1802.98,65.3606 1805.5,63.5 Z"/></g>
<g><path style="opacity:1" fill="#f8d634" d="M 1725.5,67.5 C 1731.07,66.4161 1735.57,68.0827 1739,72.5C 1739.57,76.6146 1737.74,79.1146 1733.5,80C 1727.92,81.4716 1723.09,80.3049 1719,76.5C 1718.33,75.1667 1718.33,73.8333 1719,72.5C 1721.33,70.9343 1723.49,69.2676 1725.5,67.5 Z"/></g>
<g><path style="opacity:1" fill="#d2b434" d="M 1818.5,73.5 C 1826.4,73.2342 1829.23,76.9009 1827,84.5C 1821.56,91.4694 1814.4,95.1361 1805.5,95.5C 1806.49,86.1772 1810.83,78.8439 1818.5,73.5 Z"/></g>
<g><path style="opacity:1" fill="#ccb135" d="M 1836.5,72.5 C 1842.76,73.4774 1844.09,76.6441 1840.5,82C 1835.14,83.1428 1832.97,80.9762 1834,75.5C 1834.7,74.3094 1835.53,73.3094 1836.5,72.5 Z"/></g>
<g><path style="opacity:1" fill="#f9d734" d="M 1689.5,74.5 C 1696.31,74.49 1698.81,77.8233 1697,84.5C 1691.19,99.2621 1687.86,114.595 1687,130.5C 1685.48,134.897 1683.82,139.23 1682,143.5C 1680.21,145.958 1677.88,147.624 1675,148.5C 1673.74,148.241 1672.74,147.574 1672,146.5C 1671.45,138.14 1671.78,129.806 1673,121.5C 1675.31,116.207 1677.64,110.874 1680,105.5C 1680.78,98.0565 1682.11,90.7232 1684,83.5C 1684.84,79.8426 1686.67,76.8426 1689.5,74.5 Z"/></g>
<g><path style="opacity:1" fill="#f6d635" d="M 1672.5,77.5 C 1677.89,77.8982 1680.22,80.8982 1679.5,86.5C 1679.12,94.6384 1677.12,102.305 1673.5,109.5C 1672.2,108.91 1671.37,107.91 1671,106.5C 1667.55,99.5126 1666.22,92.1793 1667,84.5C 1667.97,81.3794 1669.8,79.046 1672.5,77.5 Z"/></g>
<g><path style="opacity:1" fill="#f7d634" d="M 1742.5,81.5 C 1750.62,81.3821 1752.62,84.8821 1748.5,92C 1740.47,92.0349 1738.47,88.5349 1742.5,81.5 Z"/></g>
<g><path style="opacity:1" fill="#fad733" d="M 1706.5,83.5 C 1716.01,82.1932 1719.18,86.1932 1716,95.5C 1712.06,106.67 1707.72,117.67 1703,128.5C 1700.06,133.992 1696.39,134.658 1692,130.5C 1690.5,115.987 1693.17,102.32 1700,89.5C 1702.06,87.2659 1704.23,85.2659 1706.5,83.5 Z"/></g>
<g><path style="opacity:1" fill="#d2b434" d="M 1832.5,85.5 C 1836.33,86.4853 1839.16,88.8187 1841,92.5C 1841.67,94.8333 1841.67,97.1667 1841,99.5C 1836.11,103.24 1830.61,104.74 1824.5,104C 1823.16,96.1721 1825.83,90.0054 1832.5,85.5 Z"/></g>
<g><path style="opacity:1" fill="#ccb135" d="M 1846.5,87.5 C 1851.25,87.1563 1852.59,89.1563 1850.5,93.5C 1844.34,94.9463 1843.01,92.9463 1846.5,87.5 Z"/></g>
<g><path style="opacity:1" fill="#f9d734" d="M 1657.5,89.5 C 1658.87,89.3433 1660.21,89.51 1661.5,90C 1665.31,98.0675 1667.81,106.568 1669,115.5C 1669.11,130.5 1668.78,145.5 1668,160.5C 1667.69,165.491 1665.19,167.325 1660.5,166C 1658.38,164.269 1656.88,162.102 1656,159.5C 1651.23,141.068 1650.23,122.401 1653,103.5C 1653.69,98.5252 1655.19,93.8586 1657.5,89.5 Z"/></g>
<g><path style="opacity:1" fill="#f9d734" d="M 1724.5,89.5 C 1733.01,88.6264 1736.85,92.2931 1736,100.5C 1732.95,108.218 1727.78,114.052 1720.5,118C 1715.52,119.517 1713.52,117.684 1714.5,112.5C 1714.84,103.483 1718.18,95.8166 1724.5,89.5 Z"/></g>
<g><path style="opacity:1" fill="#f4d536" d="M 1759.5,93.5 C 1765.64,94.0262 1766.98,96.8595 1763.5,102C 1760.78,103.033 1758.95,102.2 1758,99.5C 1757.25,97.1599 1757.75,95.1599 1759.5,93.5 Z"/></g>
<g><path style="opacity:1" fill="#f9d734" d="M 1742.5,99.5 C 1749.98,98.8177 1754.98,101.984 1757.5,109C 1754.85,116.308 1749.69,120.808 1742,122.5C 1740.89,122.415 1739.89,122.081 1739,121.5C 1736.22,113.493 1737.39,106.16 1742.5,99.5 Z"/></g>
<g><path style="opacity:1" fill="#cdb134" d="M 1853.5,100.5 C 1859.2,100.146 1861.04,102.813 1859,108.5C 1854.79,111.744 1851.96,110.911 1850.5,106C 1850.86,103.808 1851.86,101.974 1853.5,100.5 Z"/></g>
<g><path style="opacity:1" fill="#d0b334" d="M 1838.5,104.5 C 1843.92,103.959 1847.42,106.293 1849,111.5C 1852.1,121.737 1848.27,125.571 1837.5,123C 1832.25,121.763 1830.42,118.596 1832,113.5C 1833.69,110.117 1835.85,107.117 1838.5,104.5 Z"/></g>
<g><path style="opacity:1" fill="#f4d536" d="M 1773.5,104.5 C 1779.08,104.974 1781.24,107.974 1780,113.5C 1776.49,117.436 1773.16,117.436 1770,113.5C 1768.98,109.553 1770.15,106.553 1773.5,104.5 Z"/></g>
<g><path style="opacity:1" fill="#c9af35" d="M 1796.5,105.5 C 1797.5,105.5 1798.5,105.5 1799.5,105.5C 1799.43,109.541 1798.09,110.208 1795.5,107.5C 1795.86,106.817 1796.2,106.15 1796.5,105.5 Z"/></g>
<g><path style="opacity:1" fill="#fad734" d="M 1758.5,116.5 C 1767.15,117.477 1772.82,122.144 1775.5,130.5C 1775.12,132.383 1774.12,133.883 1772.5,135C 1767.04,137.285 1761.37,137.951 1755.5,137C 1752.57,133.743 1751.74,129.909 1753,125.5C 1753.84,121.843 1755.67,118.843 1758.5,116.5 Z"/></g>
<g><path style="opacity:1" fill="#d1b334" d="M 1799.5,145.5 C 1798.93,139.111 1796.93,133.111 1793.5,127.5C 1795.77,116.863 1801.77,114.03 1811.5,119C 1816.36,123.061 1817.52,127.895 1815,133.5C 1811.89,129.301 1808.22,128.634 1804,131.5C 1802.8,136.292 1801.3,140.958 1799.5,145.5 Z"/></g>
<g><path style="opacity:1" fill="#c9af35" d="M 1821.5,117.5 C 1822.5,117.5 1823.5,117.5 1824.5,117.5C 1824.78,119.346 1824.11,120.68 1822.5,121.5C 1821.57,120.311 1821.24,118.978 1821.5,117.5 Z"/></g>
<g><path style="opacity:1" fill="#ceb234" d="M 1855.5,120.5 C 1861.79,120.984 1863.96,124.317 1862,130.5C 1858.19,133.277 1855.52,132.277 1854,127.5C 1853.39,124.935 1853.89,122.601 1855.5,120.5 Z"/></g>
<g><path style="opacity:1" fill="#f4d536" d="M 1781.5,126.5 C 1785.69,126.182 1788.86,127.848 1791,131.5C 1791.49,139.974 1788.33,141.641 1781.5,136.5C 1778.85,133.134 1778.85,129.801 1781.5,126.5 Z"/></g>
<g><path style="opacity:1" fill="#d1b334" d="M 1840.5,127.5 C 1843.52,127.335 1846.52,127.502 1849.5,128C 1852.26,134.265 1851.93,140.431 1848.5,146.5C 1840.54,147.937 1834.71,144.937 1831,137.5C 1830.33,136.5 1830.33,135.5 1831,134.5C 1833.82,131.524 1836.99,129.191 1840.5,127.5 Z"/></g>
<g><path style="opacity:1" fill="#e3d13b" d="M 1707.5,130.5 C 1711.16,130.35 1712.16,131.85 1710.5,135C 1706.71,135.487 1705.71,133.987 1707.5,130.5 Z"/></g>
<g><path style="opacity:1" fill="#edd438" d="M 1740.5,134.5 C 1744.16,134.35 1745.16,135.85 1743.5,139C 1742.55,139.483 1741.55,139.649 1740.5,139.5C 1740.5,137.833 1740.5,136.167 1740.5,134.5 Z"/></g>
<g><path style="opacity:1" fill="#cab035" d="M 1855.5,137.5 C 1857.82,137.818 1859.15,139.152 1859.5,141.5C 1858.88,144.986 1857.04,145.986 1854,144.5C 1853.17,141.829 1853.67,139.496 1855.5,137.5 Z"/></g>
<g><path style="opacity:1" fill="#f7d634" d="M 1772.5,139.5 C 1778.65,139.806 1782.15,143.14 1783,149.5C 1785.51,162.163 1780.68,166.33 1768.5,162C 1764.69,160.685 1761.52,158.518 1759,155.5C 1758.37,153.365 1758.7,151.365 1760,149.5C 1763.6,145.306 1767.76,141.972 1772.5,139.5 Z"/></g>
<g><path style="opacity:1" fill="#f7d634" d="M 1718.5,140.5 C 1729.93,138.625 1736.6,143.292 1738.5,154.5C 1735.69,154.429 1733.02,153.762 1730.5,152.5C 1726.86,153.642 1724.86,156.142 1724.5,160C 1726.58,166.604 1725.58,172.604 1721.5,178C 1719.5,178.667 1717.5,178.667 1715.5,178C 1708.07,173.567 1701.57,168.067 1696,161.5C 1693.19,156.769 1694.35,154.602 1699.5,155C 1702.29,158.081 1704.46,161.581 1706,165.5C 1707.67,168.167 1709.33,168.167 1711,165.5C 1711.33,159.167 1711.67,152.833 1712,146.5C 1713.91,144.144 1716.08,142.144 1718.5,140.5 Z"/></g>
<g><path style="opacity:1" fill="#c6ae35" d="M 1821.5,141.5 C 1823,141.415 1824,142.081 1824.5,143.5C 1823.68,145.111 1822.35,145.778 1820.5,145.5C 1820.43,144.041 1820.77,142.708 1821.5,141.5 Z"/></g>
<g><path style="opacity:1" fill="#f1d437" d="M 1787.5,145.5 C 1791.75,146.558 1793.08,149.058 1791.5,153C 1787.96,155.43 1785.62,154.597 1784.5,150.5C 1784.76,148.308 1785.76,146.641 1787.5,145.5 Z"/></g>
<g><path style="opacity:1" fill="#cbb035" d="M 1803.5,151.5 C 1804.5,151.5 1805.5,151.5 1806.5,151.5C 1806.5,152.833 1806.5,154.167 1806.5,155.5C 1805.5,155.5 1804.5,155.5 1803.5,155.5C 1803.5,154.167 1803.5,152.833 1803.5,151.5 Z"/></g>
<g><path style="opacity:1" fill="#cdb135" d="M 1836.5,152.5 C 1841.25,152.156 1842.59,154.156 1840.5,158.5C 1834.34,159.946 1833.01,157.946 1836.5,152.5 Z"/></g>
<g><path style="opacity:1" fill="#f3d536" d="M 1680.5,157.5 C 1686.64,158.026 1687.98,160.86 1684.5,166C 1679.5,166.664 1677.67,164.498 1679,159.5C 1679.72,158.956 1680.22,158.289 1680.5,157.5 Z"/></g>
<g><path style="opacity:1" fill="#f4d536" d="M 1749.5,161.5 C 1752.39,161.999 1753.06,163.499 1751.5,166C 1750.55,166.483 1749.55,166.649 1748.5,166.5C 1748.37,164.708 1748.7,163.042 1749.5,161.5 Z"/></g>
<g><path style="opacity:1" fill="#c9af35" d="M 1814.5,165.5 C 1815.5,165.5 1816.5,165.5 1817.5,165.5C 1817.43,169.541 1816.09,170.208 1813.5,167.5C 1813.86,166.817 1814.2,166.15 1814.5,165.5 Z"/></g>
<g><path style="opacity:1" fill="#f5d635" d="M 1771.5,167.5 C 1775.98,167.822 1777.48,170.156 1776,174.5C 1772.51,177.502 1770.01,176.835 1768.5,172.5C 1768.76,170.308 1769.76,168.641 1771.5,167.5 Z"/></g>
<g><path style="opacity:1" fill="#d0b234" d="M 1790.5,175.5 C 1794.47,176.075 1795.47,178.242 1793.5,182C 1790.43,183.164 1788.77,182.164 1788.5,179C 1788.86,177.566 1789.53,176.399 1790.5,175.5 Z"/></g>
<g><path style="opacity:1" fill="#d2b434" d="M 1858.5,188.5 C 1854.33,183.916 1849.33,180.583 1843.5,178.5C 1845.81,176.932 1848.48,176.098 1851.5,176C 1857.88,175.207 1864.22,175.374 1870.5,176.5C 1871.61,177.723 1871.78,179.056 1871,180.5C 1867.4,184.051 1863.23,186.717 1858.5,188.5 Z"/></g>
<g><path style="opacity:1" fill="#cfb234" d="M 1879.5,175.5 C 1887.66,174.171 1891.49,177.505 1891,185.5C 1887.11,188.187 1883.27,188.02 1879.5,185C 1876.88,181.763 1876.88,178.596 1879.5,175.5 Z"/></g>
<g><path style="opacity:1" fill="#f8d634" d="M 1830.5,177.5 C 1836.45,176.528 1840.95,178.528 1844,183.5C 1843.96,187.542 1841.79,189.708 1837.5,190C 1831.63,191.232 1827.63,189.066 1825.5,183.5C 1826.46,180.872 1828.13,178.872 1830.5,177.5 Z"/></g>
<g><path style="opacity:1" fill="#f3d536" d="M 1732.5,178.5 C 1733.5,178.5 1734.5,178.5 1735.5,178.5C 1735.88,180.665 1735.22,182.332 1733.5,183.5C 1731.3,182.218 1730.96,180.551 1732.5,178.5 Z"/></g>
<g><path style="opacity:1" fill="#efd438" d="M 1665.5,180.5 C 1669.16,180.35 1670.16,181.85 1668.5,185C 1667.55,185.483 1666.55,185.649 1665.5,185.5C 1665.5,183.833 1665.5,182.167 1665.5,180.5 Z"/></g>
<g><path style="opacity:1" fill="#f3d536" d="M 1695.5,180.5 C 1696.5,180.5 1697.5,180.5 1698.5,180.5C 1698.88,182.665 1698.22,184.332 1696.5,185.5C 1694.3,184.218 1693.96,182.551 1695.5,180.5 Z"/></g>
<g><path style="opacity:1" fill="#fad734" d="M 1809.5,185.5 C 1812.85,185.335 1816.18,185.502 1819.5,186C 1820.55,187.388 1820.72,188.888 1820,190.5C 1813.79,198.373 1806.63,205.206 1798.5,211C 1788.71,214.374 1779.37,218.707 1770.5,224C 1759.53,228.027 1756.69,224.86 1762,214.5C 1765.88,208.955 1770.71,204.455 1776.5,201C 1787.35,195.239 1798.35,190.072 1809.5,185.5 Z"/></g>
<g><path style="opacity:1" fill="#ccb135" d="M 1862.5,196.5 C 1861.07,195.22 1860.4,193.553 1860.5,191.5C 1864.5,189.004 1868.83,187.337 1873.5,186.5C 1878.43,186.761 1880.77,189.095 1880.5,193.5C 1874.79,196.052 1868.79,197.052 1862.5,196.5 Z"/></g>
<g><path style="opacity:1" fill="#cdb134" d="M 1891.5,188.5 C 1896.99,189.331 1898.66,192.331 1896.5,197.5C 1890.54,199.706 1888.04,197.706 1889,191.5C 1890.04,190.627 1890.88,189.627 1891.5,188.5 Z"/></g>
<g><path style="opacity:1" fill="#eed438" d="M 1749.5,189.5 C 1752.08,190.048 1753.08,191.715 1752.5,194.5C 1751.17,194.5 1749.83,194.5 1748.5,194.5C 1748.37,192.708 1748.7,191.042 1749.5,189.5 Z"/></g>
<g><path style="opacity:1" fill="#f8d634" d="M 1847.5,191.5 C 1852.33,190.75 1855.33,192.75 1856.5,197.5C 1854.43,202.779 1851.1,203.779 1846.5,200.5C 1844.99,197.231 1845.33,194.231 1847.5,191.5 Z"/></g>
<g><path style="opacity:1" fill="#f9d734" d="M 1711.5,194.5 C 1714.96,195.536 1715.29,197.203 1712.5,199.5C 1710.3,198.218 1709.96,196.551 1711.5,194.5 Z"/></g>
<g><path style="opacity:1" fill="#f7d634" d="M 1823.5,195.5 C 1827.31,195.163 1830.97,195.663 1834.5,197C 1837.06,199.276 1836.73,201.276 1833.5,203C 1825.66,207.544 1817.32,209.71 1808.5,209.5C 1809.13,207.742 1810.13,206.242 1811.5,205C 1815.4,201.589 1819.4,198.422 1823.5,195.5 Z"/></g>
<g><path style="opacity:1" fill="#f1d537" d="M 1762.5,196.5 C 1765.17,196.066 1766.33,197.066 1766,199.5C 1762.4,201.066 1761.24,200.066 1762.5,196.5 Z"/></g>
<g><path style="opacity:1" fill="#d2b434" d="M 1862.5,199.5 C 1869.84,199.334 1877.17,199.5 1884.5,200C 1889.88,201.874 1890.88,205.207 1887.5,210C 1878.83,210.262 1870.17,210.096 1861.5,209.5C 1862.32,206.236 1862.66,202.902 1862.5,199.5 Z"/></g>
<g><path style="opacity:1" fill="#c3ad35" d="M 1892.5,203.5 C 1894.91,203.694 1895.91,205.027 1895.5,207.5C 1894.17,207.5 1892.83,207.5 1891.5,207.5C 1891.43,206.041 1891.77,204.708 1892.5,203.5 Z"/></g>
<g><path style="opacity:1" fill="#f3d536" d="M 1852.5,205.5 C 1853.5,205.5 1854.5,205.5 1855.5,205.5C 1855.88,207.665 1855.22,209.332 1853.5,210.5C 1851.3,209.218 1850.96,207.551 1852.5,205.5 Z"/></g>
<g><path style="opacity:1" fill="#f2d536" d="M 1681.5,206.5 C 1682.5,206.5 1683.5,206.5 1684.5,206.5C 1684.88,208.665 1684.22,210.332 1682.5,211.5C 1680.3,210.218 1679.96,208.551 1681.5,206.5 Z"/></g>
<g><path style="opacity:1" fill="#f9d734" d="M 1835.5,206.5 C 1839.18,206.335 1842.85,206.501 1846.5,207C 1847.42,207.374 1848.25,207.874 1849,208.5C 1849.67,211.167 1849.67,213.833 1849,216.5C 1848.1,217.701 1846.93,218.535 1845.5,219C 1830.08,220.237 1815.41,224.237 1801.5,231C 1794.01,233.566 1786.35,234.566 1778.5,234C 1772.34,231.204 1772.01,227.871 1777.5,224C 1783.5,221.333 1789.5,218.667 1795.5,216C 1802.09,214.788 1808.75,214.121 1815.5,214C 1822.32,211.566 1828.98,209.066 1835.5,206.5 Z"/></g>
<g><path style="opacity:1" fill="#f3d536" d="M 1725.5,208.5 C 1729.98,208.822 1731.48,211.156 1730,215.5C 1726.79,218.373 1724.62,217.707 1723.5,213.5C 1723.44,211.486 1724.1,209.819 1725.5,208.5 Z"/></g>
<g><path style="opacity:1" fill="#d4b534" d="M 1860.5,212.5 C 1864.51,212.334 1868.51,212.501 1872.5,213C 1881.97,214.271 1885.63,219.438 1883.5,228.5C 1878.9,229.443 1874.23,229.777 1869.5,229.5C 1867.98,223.81 1864.48,219.81 1859,217.5C 1858.88,215.718 1859.38,214.052 1860.5,212.5 Z"/></g>
<g><path style="opacity:1" fill="#f6d535" d="M 1756.5,297.5 C 1754.5,297.167 1752.5,296.833 1750.5,296.5C 1745.45,294.292 1741.45,290.792 1738.5,286C 1734.6,282.589 1730.6,279.422 1726.5,276.5C 1720.15,259.226 1723.82,244.559 1737.5,232.5C 1737.83,233 1738.17,233.5 1738.5,234C 1735.35,240.085 1733.52,246.585 1733,253.5C 1730.74,262.909 1732.91,271.076 1739.5,278C 1741.85,279.964 1744.35,280.464 1747,279.5C 1745.99,268.784 1744.33,258.117 1742,247.5C 1740.28,234.661 1743.78,223.494 1752.5,214C 1753.45,213.517 1754.45,213.351 1755.5,213.5C 1754.3,217.578 1752.8,221.578 1751,225.5C 1747.73,234.843 1747.73,244.176 1751,253.5C 1756.49,263.807 1759.33,274.807 1759.5,286.5C 1759.86,290.575 1758.86,294.241 1756.5,297.5 Z"/></g>
<g><path style="opacity:1" fill="#c9af35" d="M 1892.5,219.5 C 1896.23,219.78 1897.39,221.78 1896,225.5C 1893.14,228.326 1890.97,227.826 1889.5,224C 1889.96,222.06 1890.96,220.56 1892.5,219.5 Z"/></g>
<g><path style="opacity:1" fill="#f3d536" d="M 1857.5,222.5 C 1863.64,223.026 1864.98,225.86 1861.5,231C 1856.5,231.664 1854.67,229.498 1856,224.5C 1856.72,223.956 1857.22,223.289 1857.5,222.5 Z"/></g>
<g><path style="opacity:1" fill="#fad734" d="M 1829.5,224.5 C 1835.71,224.016 1841.71,224.849 1847.5,227C 1854.42,235.598 1852.42,240.598 1841.5,242C 1828.33,245.215 1815,246.548 1801.5,246C 1798.42,244.289 1797.25,241.789 1798,238.5C 1799.87,236.291 1802.04,234.458 1804.5,233C 1812.72,229.429 1821.05,226.595 1829.5,224.5 Z"/></g>
<g><path style="opacity:1" fill="#f4d536" d="M 1696.5,225.5 C 1699.39,225.999 1700.06,227.499 1698.5,230C 1697.55,230.483 1696.55,230.649 1695.5,230.5C 1695.37,228.708 1695.7,227.042 1696.5,225.5 Z"/></g>
<g><path style="opacity:1" fill="#d0b435" d="M 1869.5,231.5 C 1873.03,232.052 1876.37,233.218 1879.5,235C 1881.44,236.722 1882.44,238.889 1882.5,241.5C 1881.39,247.567 1877.72,249.901 1871.5,248.5C 1869.52,247.188 1867.85,245.521 1866.5,243.5C 1868.73,239.804 1869.73,235.804 1869.5,231.5 Z"/></g>
<g><path style="opacity:1" fill="#c1ac36" d="M 1886.5,233.5 C 1888.91,233.694 1889.91,235.027 1889.5,237.5C 1888.17,237.5 1886.83,237.5 1885.5,237.5C 1885.43,236.041 1885.77,234.708 1886.5,233.5 Z"/></g>
<g><path style="opacity:1" fill="#f9d734" d="M 1757.5,234.5 C 1760.96,235.536 1761.29,237.203 1758.5,239.5C 1756.3,238.218 1755.96,236.551 1757.5,234.5 Z"/></g>
<g><path style="opacity:1" fill="#e4d13b" d="M 1714.5,236.5 C 1718.16,236.35 1719.16,237.85 1717.5,241C 1713.71,241.487 1712.71,239.987 1714.5,236.5 Z"/></g>
<g><path style="opacity:1" fill="#eed437" d="M 1777.5,240.5 C 1783.07,239.753 1784.9,242.087 1783,247.5C 1777.48,250.666 1775.15,248.999 1776,242.5C 1776.72,241.956 1777.22,241.289 1777.5,240.5 Z"/></g>
<g><path style="opacity:1" fill="#f4d536" d="M 1856.5,242.5 C 1857.83,242.5 1859.17,242.5 1860.5,242.5C 1860.5,243.833 1860.5,245.167 1860.5,246.5C 1859.17,246.5 1857.83,246.5 1856.5,246.5C 1856.5,245.167 1856.5,243.833 1856.5,242.5 Z"/></g>
<g><path style="opacity:1" fill="#f8d634" d="M 1834.5,245.5 C 1839.96,245.103 1845.29,245.603 1850.5,247C 1856.09,252.81 1855.76,258.144 1849.5,263C 1839.16,264.624 1829.99,262.124 1822,255.5C 1821.33,254.167 1821.33,252.833 1822,251.5C 1825.84,248.62 1830.01,246.62 1834.5,245.5 Z"/></g>
<g><path style="opacity:1" fill="#cfb234" d="M 1888.5,244.5 C 1892.23,244.78 1893.39,246.78 1892,250.5C 1889.14,253.435 1887.31,252.935 1886.5,249C 1886.52,247.167 1887.19,245.667 1888.5,244.5 Z"/></g>
<g><path style="opacity:1" fill="#efd437" d="M 1690.5,245.5 C 1697.76,245.714 1703.59,248.714 1708,254.5C 1709.08,259.998 1711.25,264.998 1714.5,269.5C 1712.59,268.925 1710.92,267.925 1709.5,266.5C 1709.16,265.662 1708.49,265.328 1707.5,265.5C 1701.83,258.833 1696.17,252.167 1690.5,245.5 Z"/></g>
<g><path style="opacity:1" fill="#f0d437" d="M 1861.5,251.5 C 1864.92,250.866 1866.92,252.2 1867.5,255.5C 1866.64,260.671 1864.14,261.671 1860,258.5C 1859.17,255.829 1859.67,253.496 1861.5,251.5 Z"/></g>
<g><path style="opacity:0.871" fill="#070909" d="M 1707.5,265.5 C 1707.84,266.338 1708.51,266.672 1709.5,266.5C 1710.92,267.925 1712.59,268.925 1714.5,269.5C 1718.46,271.818 1722.46,274.152 1726.5,276.5C 1730.6,279.422 1734.6,282.589 1738.5,286C 1741.45,290.792 1745.45,294.292 1750.5,296.5C 1761.83,303.838 1768.83,314.172 1771.5,327.5C 1771.24,330.26 1770.24,332.594 1768.5,334.5C 1765.9,324.471 1760.23,316.638 1751.5,311C 1746.17,308.333 1740.83,305.667 1735.5,303C 1732.11,300.214 1729.45,296.881 1727.5,293C 1721.17,290.667 1716.83,286.333 1714.5,280C 1709.05,281.411 1704.22,280.245 1700,276.5C 1699.77,273.905 1699.27,271.405 1698.5,269C 1691.23,264.523 1683.57,263.523 1675.5,266C 1673.29,268.921 1671.45,272.088 1670,275.5C 1667.83,277 1666.33,276.5 1665.5,274C 1666.27,270.3 1667.93,267.133 1670.5,264.5C 1669.17,264.5 1667.83,264.5 1666.5,264.5C 1666.35,260.975 1667.68,258.141 1670.5,256C 1684.03,250.217 1695.36,253.217 1704.5,265C 1705.45,265.483 1706.45,265.649 1707.5,265.5 Z M 1670.5,264.5 C 1675.17,255.194 1682.17,253.028 1691.5,258C 1695.75,260.243 1699.41,263.243 1702.5,267C 1699.31,265.752 1695.97,264.419 1692.5,263C 1684.94,260.703 1677.61,261.203 1670.5,264.5 Z"/></g>
<g><path style="opacity:1" fill="#e3d13b" d="M 1802.5,252.5 C 1806.16,252.35 1807.16,253.85 1805.5,257C 1801.71,257.487 1800.71,255.987 1802.5,252.5 Z"/></g>
<g><path style="opacity:1" fill="#c8af35" d="M 1883.5,256.5 C 1884.5,256.5 1885.5,256.5 1886.5,256.5C 1886.43,260.541 1885.09,261.208 1882.5,258.5C 1882.86,257.817 1883.2,257.15 1883.5,256.5 Z"/></g>
<g><path style="opacity:1" fill="#e4d13b" d="M 1760.5,257.5 C 1764.16,257.35 1765.16,258.85 1763.5,262C 1759.71,262.487 1758.71,260.987 1760.5,257.5 Z"/></g>
<g><path style="opacity:1" fill="#98af43" d="M 1873.5,252.5 C 1875.03,253.492 1875.69,254.992 1875.5,257C 1875.49,258.385 1875.15,259.551 1874.5,260.5C 1874.6,257.763 1874.27,255.096 1873.5,252.5 Z"/></g>
<g><path style="opacity:1" fill="#f2d536" d="M 1782.5,264.5 C 1783.83,264.5 1785.17,264.5 1786.5,264.5C 1786.5,265.833 1786.5,267.167 1786.5,268.5C 1785.17,268.5 1783.83,268.5 1782.5,268.5C 1782.5,267.167 1782.5,265.833 1782.5,264.5 Z"/></g>
<g><path style="opacity:1" fill="#c9b035" d="M 1877.5,263.5 C 1882.7,264.259 1883.7,266.759 1880.5,271C 1878.57,271.783 1877.07,271.283 1876,269.5C 1875.25,267.16 1875.75,265.16 1877.5,263.5 Z"/></g>
<g><path style="opacity:1" fill="#f5d635" d="M 1860.5,265.5 C 1861.5,265.5 1862.5,265.5 1863.5,265.5C 1863.88,267.665 1863.22,269.332 1861.5,270.5C 1859.3,269.218 1858.96,267.551 1860.5,265.5 Z"/></g>
<g><path style="opacity:1" fill="#f8d634" d="M 1839.5,266.5 C 1851.38,265.219 1855.21,270.219 1851,281.5C 1848.98,286.145 1845.48,287.645 1840.5,286C 1835.55,284.28 1831.39,281.446 1828,277.5C 1827.54,274.904 1828.38,272.737 1830.5,271C 1833.44,269.199 1836.44,267.699 1839.5,266.5 Z"/></g>
<g><path style="opacity:1" fill="#f4d536" d="M 1808.5,272.5 C 1809.83,272.5 1811.17,272.5 1812.5,272.5C 1812.5,273.833 1812.5,275.167 1812.5,276.5C 1811.17,276.5 1809.83,276.5 1808.5,276.5C 1808.5,275.167 1808.5,273.833 1808.5,272.5 Z"/></g>
<g><path style="opacity:1" fill="#f1d537" d="M 1856.5,275.5 C 1862.64,276.026 1863.98,278.86 1860.5,284C 1855.5,284.664 1853.67,282.498 1855,277.5C 1855.72,276.956 1856.22,276.289 1856.5,275.5 Z"/></g>
<g><path style="opacity:1" fill="#d0b234" d="M 1875.5,278.5 C 1879.46,278.071 1882.96,279.071 1886,281.5C 1886.8,286.751 1886.64,291.918 1885.5,297C 1884.06,297.781 1882.72,297.614 1881.5,296.5C 1880.81,294.556 1880.31,292.556 1880,290.5C 1877.43,289.194 1875.09,287.527 1873,285.5C 1872.16,282.519 1873,280.186 1875.5,278.5 Z"/></g>
<g><path style="opacity:1" fill="#efd437" d="M 1768.5,280.5 C 1769.5,280.5 1770.5,280.5 1771.5,280.5C 1771.5,282.167 1771.5,283.833 1771.5,285.5C 1767.72,285.475 1766.72,283.808 1768.5,280.5 Z"/></g>
<g><path style="opacity:1" fill="#f4d535" d="M 1787.5,285.5 C 1788.83,285.5 1790.17,285.5 1791.5,285.5C 1791.5,286.833 1791.5,288.167 1791.5,289.5C 1790.17,289.5 1788.83,289.5 1787.5,289.5C 1787.5,288.167 1787.5,286.833 1787.5,285.5 Z"/></g>
<g><path style="opacity:1" fill="#99a53f" d="M 1871.5,284.5 C 1871.5,286.167 1871.5,287.833 1871.5,289.5C 1870.32,289.719 1869.32,289.386 1868.5,288.5C 1869.52,287.099 1870.52,285.765 1871.5,284.5 Z"/></g>
<g><path style="opacity:1" fill="#f8d634" d="M 1821.5,290.5 C 1827.7,290.314 1829.04,292.814 1825.5,298C 1819.4,298.147 1818.07,295.647 1821.5,290.5 Z"/></g>
<g><path style="opacity:0.981" fill="#19ac54" d="M 113.5,291.5 C 134.836,291.333 156.169,291.5 177.5,292C 206.758,294.582 219.924,310.416 217,339.5C 215.971,349.663 213.304,359.33 209,368.5C 206.441,371.531 203.274,373.698 199.5,375C 187.071,375.959 174.737,375.626 162.5,374C 158.749,369.757 156.749,364.757 156.5,359C 158.283,351.252 158.783,343.419 158,335.5C 156.372,330.432 152.872,327.932 147.5,328C 141.5,327.333 135.5,327.333 129.5,328C 121.896,328.282 116.396,331.782 113,338.5C 108.99,350.541 107.324,362.875 108,375.5C 109.059,378.618 110.392,381.618 112,384.5C 136,407.833 160,431.167 184,454.5C 187.24,459.887 189.073,465.72 189.5,472C 186.403,493.152 181.903,513.985 176,534.5C 165.814,553.982 149.648,564.816 127.5,567C 101.459,567.954 75.4589,567.62 49.5,566C 24.0833,559.703 13.9167,543.536 19,517.5C 20.0781,511.443 21.4114,505.443 23,499.5C 26.0172,491.229 31.8505,486.062 40.5,484C 50.8333,483.333 61.1667,483.333 71.5,484C 77.1118,487.045 79.7785,491.879 79.5,498.5C 77.7542,507.099 77.2542,515.766 78,524.5C 79.5,527.333 81.6667,529.5 84.5,531C 94.2417,531.92 103.908,531.587 113.5,530C 119.27,527.305 122.77,522.805 124,516.5C 127.162,506.033 128.495,495.366 128,484.5C 127.275,482.051 126.275,479.717 125,477.5C 101.387,454.555 77.72,431.555 54,408.5C 49.2742,401.767 47.1075,394.267 47.5,386C 49.298,369.007 52.1314,352.174 56,335.5C 60.5542,316.879 71.7208,304.046 89.5,297C 97.463,294.403 105.463,292.57 113.5,291.5 Z"/></g>
<g><path style="opacity:0.981" fill="#19ac54" d="M 295.5,291.5 C 316.836,291.333 338.169,291.5 359.5,292C 388.758,294.582 401.924,310.416 399,339.5C 397.971,349.663 395.304,359.33 391,368.5C 388.441,371.531 385.274,373.698 381.5,375C 369.071,375.959 356.737,375.626 344.5,374C 340.749,369.757 338.749,364.757 338.5,359C 340.283,351.252 340.783,343.419 340,335.5C 338.372,330.432 334.872,327.932 329.5,328C 323.5,327.333 317.5,327.333 311.5,328C 303.896,328.282 298.396,331.782 295,338.5C 290.99,350.541 289.324,362.875 290,375.5C 291.059,378.618 292.392,381.618 294,384.5C 318,407.833 342,431.167 366,454.5C 369.24,459.887 371.073,465.72 371.5,472C 368.403,493.152 363.903,513.985 358,534.5C 347.814,553.982 331.648,564.816 309.5,567C 283.459,567.954 257.459,567.62 231.5,566C 206.083,559.703 195.917,543.536 201,517.5C 202.078,511.443 203.411,505.443 205,499.5C 208.017,491.229 213.85,486.062 222.5,484C 232.833,483.333 243.167,483.333 253.5,484C 259.112,487.045 261.778,491.879 261.5,498.5C 259.754,507.099 259.254,515.766 260,524.5C 261.5,527.333 263.667,529.5 266.5,531C 276.242,531.92 285.908,531.587 295.5,530C 301.27,527.305 304.77,522.805 306,516.5C 309.162,506.033 310.495,495.366 310,484.5C 309.275,482.051 308.275,479.717 307,477.5C 283.387,454.555 259.72,431.555 236,408.5C 231.274,401.767 229.108,394.267 229.5,386C 231.298,369.007 234.131,352.174 238,335.5C 242.554,316.879 253.721,304.046 271.5,297C 279.463,294.403 287.463,292.57 295.5,291.5 Z"/></g>
<g><path style="opacity:0.984" fill="#19ac54" d="M 447.5,291.5 C 481.168,291.333 514.835,291.5 548.5,292C 568.093,293.266 579.926,303.433 584,322.5C 584.667,329.167 584.667,335.833 584,342.5C 580.512,361.941 576.512,381.274 572,400.5C 562.519,425.65 544.686,441.15 518.5,447C 503.167,447.333 487.833,447.667 472.5,448C 463.53,447.557 458.363,451.724 457,460.5C 451,490.5 445,520.5 439,550.5C 436.905,558.927 431.739,564.427 423.5,567C 412.833,567.667 402.167,567.667 391.5,567C 383.286,563.068 380.452,556.568 383,547.5C 398.667,468.5 414.333,389.5 430,310.5C 432.241,300.762 438.075,294.429 447.5,291.5 Z M 497.5,327.5 C 506.052,327.038 513.886,329.038 521,333.5C 525.296,339.845 526.63,346.845 525,354.5C 523,364.5 521,374.5 519,384.5C 513.318,405.773 499.484,414.606 477.5,411C 472.112,408.908 469.445,404.908 469.5,399C 472.82,379.733 476.653,360.567 481,341.5C 483.987,333.626 489.487,328.959 497.5,327.5 Z"/></g>
<g><path style="opacity:0.982" fill="#080a0a" d="M 678.5,291.5 C 733.501,291.333 788.501,291.5 843.5,292C 846.232,292.398 848.065,293.898 849,296.5C 849.435,303.999 848.435,311.333 846,318.5C 845.021,321.625 843.187,324.125 840.5,326C 823.553,327.063 806.553,328.063 789.5,329C 785.749,330.415 782.916,332.915 781,336.5C 766.412,407.441 752.079,478.441 738,549.5C 736.414,558.081 731.581,563.914 723.5,567C 711.833,567.667 700.167,567.667 688.5,567C 684.667,565.833 682.167,563.333 681,559.5C 680.333,556.167 680.333,552.833 681,549.5C 695.319,479.085 709.152,408.585 722.5,338C 723.389,333.56 721.722,330.56 717.5,329C 701.539,327.763 685.539,327.096 669.5,327C 666.066,325.471 664.4,322.804 664.5,319C 665.446,310.541 667.779,302.541 671.5,295C 673.713,293.384 676.047,292.217 678.5,291.5 Z"/></g>
<g><path style="opacity:0.984" fill="#080a0a" d="M 879.5,291.5 C 916.202,291.039 952.868,291.539 989.5,293C 1007.3,298.137 1017.13,309.971 1019,328.5C 1019.67,332.5 1019.67,336.5 1019,340.5C 1015.99,361.89 1011.32,382.89 1005,403.5C 996.189,422.311 982.189,435.645 963,443.5C 962.333,446.167 962.333,448.833 963,451.5C 969.333,483.167 975.667,514.833 982,546.5C 984.556,555.318 982.056,562.152 974.5,567C 962.5,567.667 950.5,567.667 938.5,567C 935.758,565.93 933.258,564.43 931,562.5C 928.416,558.167 926.749,553.5 926,548.5C 919.128,515.805 912.128,483.139 905,450.5C 903.309,446.787 900.475,445.621 896.5,447C 895.299,447.903 894.465,449.069 894,450.5C 887.334,483.831 880.667,517.164 874,550.5C 872.025,558.477 867.192,563.977 859.5,567C 847.833,567.667 836.167,567.667 824.5,567C 821.667,565.5 819.5,563.333 818,560.5C 817.333,556.167 817.333,551.833 818,547.5C 833.667,468.5 849.333,389.5 865,310.5C 866.34,301.346 871.173,295.013 879.5,291.5 Z M 932.5,327.5 C 941.052,327.038 948.886,329.038 956,333.5C 960.296,339.845 961.63,346.845 960,354.5C 957.716,366.918 955.05,379.251 952,391.5C 948.102,402.034 940.602,408.201 929.5,410C 924.53,411.081 919.53,411.414 914.5,411C 907.812,409.305 904.478,404.972 904.5,398C 907.949,379.088 911.782,360.254 916,341.5C 918.577,333.16 924.077,328.493 932.5,327.5 Z"/></g>
<g><path style="opacity:0.983" fill="#080a0a" d="M 1075.5,291.5 C 1107.5,291.333 1139.5,291.5 1171.5,292C 1174.57,292.739 1176.74,294.572 1178,297.5C 1178.38,303.589 1177.72,309.589 1176,315.5C 1174.91,321.588 1171.41,325.421 1165.5,327C 1149.79,327.098 1134.13,327.765 1118.5,329C 1114.33,330.5 1111.5,333.333 1110,337.5C 1105.18,358.772 1100.68,380.105 1096.5,401.5C 1097.18,406.348 1099.85,409.515 1104.5,411C 1115.9,411.066 1127.24,411.733 1138.5,413C 1140.17,414.823 1141.17,416.99 1141.5,419.5C 1140.36,427.348 1138.53,435.015 1136,442.5C 1134.46,444.378 1132.62,445.878 1130.5,447C 1118.8,447.168 1107.13,447.834 1095.5,449C 1092.1,450.4 1089.26,452.567 1087,455.5C 1081.66,477.532 1076.83,499.699 1072.5,522C 1072.93,526.554 1075.27,529.554 1079.5,531C 1095.23,531.046 1110.9,531.713 1126.5,533C 1129.84,534.886 1131.17,537.719 1130.5,541.5C 1129.95,548.397 1128.45,555.063 1126,561.5C 1124.06,564.106 1121.56,565.939 1118.5,567C 1085.5,567.667 1052.5,567.667 1019.5,567C 1011.29,563.068 1008.45,556.568 1011,547.5C 1026.67,468.5 1042.33,389.5 1058,310.5C 1060.24,300.762 1066.07,294.429 1075.5,291.5 Z"/></g>
<g><path style="opacity:0.983" fill="#080a0a" d="M 1410.5,291.5 C 1443.87,291.043 1477.2,291.543 1510.5,293C 1530.75,299.933 1542.25,314.1 1545,335.5C 1545.67,340.833 1545.67,346.167 1545,351.5C 1534.82,406.756 1523.48,461.756 1511,516.5C 1500.21,542.958 1481.05,559.792 1453.5,567C 1420.5,567.667 1387.5,567.667 1354.5,567C 1346.29,563.068 1343.45,556.568 1346,547.5C 1361.67,468.5 1377.33,389.5 1393,310.5C 1395.24,300.762 1401.07,294.429 1410.5,291.5 Z M 1456.5,327.5 C 1464.91,326.957 1472.91,328.457 1480.5,332C 1485.61,336.886 1488.28,342.886 1488.5,350C 1478.59,401.548 1468.42,453.048 1458,504.5C 1450.56,526.222 1435.39,535.055 1412.5,531C 1410.67,530.5 1409.5,529.333 1409,527.5C 1408.33,523.5 1408.33,519.5 1409,515.5C 1420.33,458.833 1431.67,402.167 1443,345.5C 1443.46,336.173 1447.96,330.173 1456.5,327.5 Z"/></g>
<g><path style="opacity:0.981" fill="#080a0a" d="M 1629.5,291.5 C 1650.84,291.333 1672.17,291.5 1693.5,292C 1722.76,294.582 1735.92,310.416 1733,339.5C 1731.97,349.663 1729.3,359.33 1725,368.5C 1722.44,371.531 1719.27,373.698 1715.5,375C 1703.07,375.959 1690.74,375.626 1678.5,374C 1674.75,369.757 1672.75,364.757 1672.5,359C 1674.28,351.252 1674.78,343.419 1674,335.5C 1672.37,330.432 1668.87,327.932 1663.5,328C 1657.5,327.333 1651.5,327.333 1645.5,328C 1637.9,328.282 1632.4,331.782 1629,338.5C 1624.99,350.541 1623.32,362.875 1624,375.5C 1625.06,378.618 1626.39,381.618 1628,384.5C 1652,407.833 1676,431.167 1700,454.5C 1703.24,459.887 1705.07,465.72 1705.5,472C 1702.4,493.152 1697.9,513.985 1692,534.5C 1681.81,553.982 1665.65,564.816 1643.5,567C 1617.46,567.954 1591.46,567.62 1565.5,566C 1540.08,559.703 1529.92,543.536 1535,517.5C 1536.08,511.443 1537.41,505.443 1539,499.5C 1542.02,491.229 1547.85,486.062 1556.5,484C 1566.83,483.333 1577.17,483.333 1587.5,484C 1593.11,487.045 1595.78,491.879 1595.5,498.5C 1593.75,507.099 1593.25,515.766 1594,524.5C 1595.5,527.333 1597.67,529.5 1600.5,531C 1610.24,531.92 1619.91,531.587 1629.5,530C 1635.27,527.305 1638.77,522.805 1640,516.5C 1643.16,506.033 1644.5,495.366 1644,484.5C 1643.28,482.051 1642.28,479.717 1641,477.5C 1617.39,454.555 1593.72,431.555 1570,408.5C 1565.27,401.767 1563.11,394.267 1563.5,386C 1565.3,369.007 1568.13,352.174 1572,335.5C 1576.55,316.879 1587.72,304.046 1605.5,297C 1613.46,294.403 1621.46,292.57 1629.5,291.5 Z"/></g>
<g><path style="opacity:0.985" fill="#080a0a" d="M 1216.5,292.5 C 1227.51,292.333 1238.51,292.5 1249.5,293C 1252.2,293.69 1254.36,295.19 1256,297.5C 1263.73,344.193 1271.56,390.86 1279.5,437.5C 1280.81,436.088 1281.64,434.421 1282,432.5C 1289.87,392.142 1297.87,351.809 1306,311.5C 1310.02,294.893 1320.52,288.559 1337.5,292.5C 1357.42,288.256 1365.58,295.923 1362,315.5C 1346.2,394.142 1330.54,472.809 1315,551.5C 1313.39,558.769 1309.23,563.935 1302.5,567C 1291.17,567.667 1279.83,567.667 1268.5,567C 1265.45,566.394 1262.95,564.894 1261,562.5C 1253.06,515.852 1245.23,469.186 1237.5,422.5C 1227.94,467.121 1218.44,511.788 1209,556.5C 1206.03,561.473 1201.86,564.973 1196.5,567C 1184.83,567.667 1173.17,567.667 1161.5,567C 1158.67,565.5 1156.5,563.333 1155,560.5C 1154.33,556.167 1154.33,551.833 1155,547.5C 1170.54,468.809 1186.2,390.142 1202,311.5C 1203.34,302.346 1208.17,296.013 1216.5,292.5 Z"/></g>
<g><path style="opacity:1" fill="#f7d635" d="M 1861.5,291.5 C 1865.26,291.071 1868.76,291.737 1872,293.5C 1875.51,298.984 1876.68,304.818 1875.5,311C 1874.17,311.667 1872.83,311.667 1871.5,311C 1869.62,305.117 1865.62,302.45 1859.5,303C 1854.99,298.069 1855.65,294.235 1861.5,291.5 Z"/></g>
<g><path style="opacity:1" fill="#e6d23a" d="M 1802.5,294.5 C 1806.16,294.35 1807.16,295.85 1805.5,299C 1801.67,299.514 1800.67,298.014 1802.5,294.5 Z"/></g>
<g><path style="opacity:1" fill="#fad733" d="M 1844.5,295.5 C 1850.68,295.487 1854.84,298.487 1857,304.5C 1858.44,309.762 1858.77,315.096 1858,320.5C 1857.5,321.667 1856.67,322.5 1855.5,323C 1847.71,324.599 1840.71,322.932 1834.5,318C 1831.74,315.005 1830.9,311.505 1832,307.5C 1835.4,302.595 1839.57,298.595 1844.5,295.5 Z"/></g>
<g><path style="opacity:1" fill="#f3d536" d="M 1777.5,301.5 C 1783.64,302.026 1784.98,304.86 1781.5,310C 1776.5,310.664 1774.67,308.498 1776,303.5C 1776.72,302.956 1777.22,302.289 1777.5,301.5 Z"/></g>
<g><path style="opacity:1" fill="#f1d437" d="M 1809.5,311.5 C 1810.5,311.5 1811.5,311.5 1812.5,311.5C 1812.5,313.167 1812.5,314.833 1812.5,316.5C 1808.72,316.475 1807.72,314.808 1809.5,311.5 Z"/></g>
<g><path style="opacity:1" fill="#f5d635" d="M 1865.5,314.5 C 1872.77,314.569 1874.27,317.569 1870,323.5C 1865.75,327.693 1860.59,329.359 1854.5,328.5C 1854.35,327.448 1854.52,326.448 1855,325.5C 1859.43,322.566 1862.93,318.899 1865.5,314.5 Z"/></g>
<g><path style="opacity:1" fill="#e7d23a" d="M 1787.5,318.5 C 1791.16,318.35 1792.16,319.85 1790.5,323C 1786.71,323.487 1785.71,321.987 1787.5,318.5 Z"/></g>
<g><path style="opacity:1" fill="#f9d734" d="M 1823.5,320.5 C 1828.47,320.971 1832.3,323.305 1835,327.5C 1836.3,329.94 1837.47,332.44 1838.5,335C 1837.9,336.605 1836.9,337.938 1835.5,339C 1830.8,341.68 1825.8,342.68 1820.5,342C 1819.67,341.167 1818.83,340.333 1818,339.5C 1817.2,332.351 1819.04,326.018 1823.5,320.5 Z"/></g>
<g><path style="opacity:1" fill="#eed438" d="M 1801.5,331.5 C 1802.83,331.5 1804.17,331.5 1805.5,331.5C 1805.11,335.738 1803.45,336.404 1800.5,333.5C 1800.86,332.817 1801.2,332.15 1801.5,331.5 Z"/></g>
<g><path style="opacity:1" fill="#f7d635" d="M 1847.5,334.5 C 1850.69,334.02 1853.52,334.686 1856,336.5C 1855.92,345.385 1851.59,348.385 1843,345.5C 1842.33,343.833 1842.33,342.167 1843,340.5C 1844.33,338.34 1845.83,336.34 1847.5,334.5 Z"/></g>
<g><path style="opacity:1" fill="#f0d437" d="M 1827.5,343.5 C 1829.92,343.292 1832.25,343.626 1834.5,344.5C 1837.55,348.195 1836.71,350.528 1832,351.5C 1826.73,350.965 1825.23,348.298 1827.5,343.5 Z"/></g>
<g><path style="opacity:0.944" fill="#19ac54" d="M 1307.5,608.5 C 1311.79,608.035 1315.79,608.868 1319.5,611C 1320.59,613.064 1320.76,615.231 1320,617.5C 1304.53,655.096 1288.53,692.429 1272,729.5C 1271,730.5 1270,731.5 1269,732.5C 1268.46,730.131 1267.3,728.131 1265.5,726.5C 1265.83,725.833 1266.17,725.167 1266.5,724.5C 1264.15,722.763 1263.15,720.43 1263.5,717.5C 1266.05,704.057 1270.05,691.057 1275.5,678.5C 1264.53,678.064 1253.53,678.064 1242.5,678.5C 1239.08,688.676 1234.58,698.343 1229,707.5C 1227.49,708.257 1226.15,709.257 1225,710.5C 1224.28,708.888 1224.45,707.388 1225.5,706C 1223.7,704.129 1222.36,701.962 1221.5,699.5C 1222.05,692.662 1223.38,685.995 1225.5,679.5C 1221.68,678.338 1217.84,677.338 1214,676.5C 1213.32,671.548 1214.48,667.048 1217.5,663C 1222.48,660.252 1227.81,658.419 1233.5,657.5C 1238.27,643.951 1243.61,630.618 1249.5,617.5C 1250.33,617.167 1251.17,616.833 1252,616.5C 1257.26,617.007 1261.1,619.507 1263.5,624C 1259.67,635.146 1256.01,646.313 1252.5,657.5C 1262.92,657.635 1273.25,657.635 1283.5,657.5C 1290.73,640.71 1298.73,624.376 1307.5,608.5 Z"/></g>
<g><path style="opacity:0.948" fill="#19ac54" d="M 362.5,613.5 C 366.135,613.656 366.468,614.822 363.5,617C 364.517,618.049 364.684,619.216 364,620.5C 349.076,647.684 335.743,675.684 324,704.5C 322.939,707.562 321.106,710.062 318.5,712C 308.43,713.531 299.93,710.698 293,703.5C 291.831,695.168 290.498,686.835 289,678.5C 281.499,688.973 275.499,700.306 271,712.5C 267.562,717.081 263.062,718.581 257.5,717C 249.144,714.976 246.144,709.642 248.5,701C 249.828,692.462 249.495,683.962 247.5,675.5C 249.026,661.58 248.36,647.746 245.5,634C 246.697,628.954 249.03,624.454 252.5,620.5C 257.976,618.291 263.476,618.291 269,620.5C 269.667,628.167 269.667,635.833 269,643.5C 267.263,655.13 266.263,666.796 266,678.5C 273.375,664.241 281.875,650.741 291.5,638C 298.264,636.337 303.931,638.337 308.5,644C 306.693,658.734 306.193,673.567 307,688.5C 313.969,673.225 321.969,658.558 331,644.5C 338.539,636.63 345.706,628.463 352.5,620C 356.009,617.97 359.342,615.804 362.5,613.5 Z"/></g>
<g><path style="opacity:0.939" fill="#19ac54" d="M 851.5,616.5 C 866.832,617.606 871.332,624.94 865,638.5C 860.384,647.563 854.884,656.063 848.5,664C 842.985,664.001 839.652,661.168 838.5,655.5C 840.761,648.312 844.094,641.645 848.5,635.5C 835.009,637.304 826.343,644.97 822.5,658.5C 823.219,660.728 824.552,662.561 826.5,664C 835.825,668.661 843.991,674.828 851,682.5C 854.643,690.091 854.309,697.424 850,704.5C 837.238,718.422 821.738,723.256 803.5,719C 801.91,717.954 800.41,716.787 799,715.5C 797.487,711.111 795.32,707.111 792.5,703.5C 793.758,701.352 793.758,699.185 792.5,697C 793.64,694.815 794.64,692.982 795.5,691.5C 799.5,692.656 802.5,695.156 804.5,699C 815.307,704.832 824.474,702.999 832,693.5C 832.938,690.12 832.271,687.12 830,684.5C 820.696,677.859 812.03,670.525 804,662.5C 801.333,654.181 802.667,646.515 808,639.5C 813.957,632.213 821.124,626.379 829.5,622C 837.173,621.044 844.506,619.211 851.5,616.5 Z"/></g>
<g><path style="opacity:0.934" fill="#19ac54" d="M 439.5,623.5 C 442.881,623.46 446.214,623.793 449.5,624.5C 449.285,630.029 448.118,635.362 446,640.5C 442.962,647.409 439.795,654.242 436.5,661C 438.762,661.642 440.929,662.475 443,663.5C 443.148,665.577 442.648,667.577 441.5,669.5C 437.684,670.909 434.017,672.576 430.5,674.5C 426.109,685.616 421.442,696.616 416.5,707.5C 414.092,708.453 411.925,709.787 410,711.5C 409.667,711.167 409.333,710.833 409,710.5C 407.326,711.676 405.826,713.01 404.5,714.5C 403.808,713.975 403.308,713.308 403,712.5C 402.333,709.167 402.333,705.833 403,702.5C 405.811,693.903 408.311,685.236 410.5,676.5C 405.431,676.85 400.431,677.683 395.5,679C 391.479,688.211 387.312,697.378 383,706.5C 379.54,709.105 375.707,711.105 371.5,712.5C 370.914,712.291 370.414,711.957 370,711.5C 369.491,700.179 371.991,689.512 377.5,679.5C 376.482,678.148 375.149,677.148 373.5,676.5C 375.253,669.912 379.087,664.912 385,661.5C 390.036,650.584 396.203,640.418 403.5,631C 407.634,629.902 410.634,631.235 412.5,635C 409.598,642.54 406.598,650.04 403.5,657.5C 406.882,658.208 410.382,658.541 414,658.5C 416.069,657.736 418.236,657.236 420.5,657C 425.987,647.859 430.821,638.359 435,628.5C 436.366,626.638 437.866,624.972 439.5,623.5 Z"/></g>
<g><path style="opacity:0.932" fill="#19ac54" d="M 931.5,626.5 C 935.976,626.819 940.143,628.152 944,630.5C 943.944,641.84 943.444,653.173 942.5,664.5C 945.692,663.467 948.692,663.301 951.5,664C 950.237,665.705 949.903,667.372 950.5,669C 947,671.167 944.167,674 942,677.5C 941.882,682.519 940.549,687.185 938,691.5C 937.002,698.467 936.336,705.467 936,712.5C 933.67,714.032 931.67,713.698 930,711.5C 929.165,706.817 928.332,702.15 927.5,697.5C 928.304,691.707 928.304,685.707 927.5,679.5C 923.165,679.917 918.832,680.417 914.5,681C 910.602,686.571 907.102,692.405 904,698.5C 900.957,701.954 897.457,702.454 893.5,700C 892.042,697.923 891.376,695.59 891.5,693C 892.13,687.111 893.963,681.611 897,676.5C 908.33,659.678 919.83,643.011 931.5,626.5 Z M 927.5,654.5 C 928.032,658.307 928.032,662.307 927.5,666.5C 925.181,667.167 922.847,667.334 920.5,667C 923.238,663.021 925.571,658.855 927.5,654.5 Z"/></g>
<g><path style="opacity:0.925" fill="#19ac54" d="M 516.5,628.5 C 529.898,634.967 535.065,645.633 532,660.5C 526.151,679.054 515.318,693.887 499.5,705C 492.537,708.482 485.704,708.316 479,704.5C 477.194,699.554 474.861,694.888 472,690.5C 470.647,681.109 471.981,672.109 476,663.5C 479.884,655.553 484.384,648.053 489.5,641C 492.382,639.392 495.382,638.059 498.5,637C 506.122,637.095 512.122,634.262 516.5,628.5 Z M 507.5,644.5 C 511.722,644.078 515.722,644.745 519.5,646.5C 519.931,647.293 520.265,648.127 520.5,649C 515.569,668.589 504.069,682.755 486,691.5C 484.885,690 484.052,688.333 483.5,686.5C 484.179,681.074 485.346,675.74 487,670.5C 488.791,668.971 490.458,667.304 492,665.5C 493.61,660.669 495.61,656.003 498,651.5C 500.529,648.115 503.696,645.782 507.5,644.5 Z"/></g>
<g><path style="opacity:0.938" fill="#19ac54" d="M 1445.5,628.5 C 1455.03,628.382 1463.7,631.049 1471.5,636.5C 1475.75,643.226 1475.25,649.56 1470,655.5C 1467.98,657.684 1465.82,659.684 1463.5,661.5C 1475.07,663.963 1478.91,670.963 1475,682.5C 1472.65,689.519 1468.15,694.686 1461.5,698C 1449.08,702.039 1436.75,706.372 1424.5,711C 1420.41,711.711 1416.91,710.544 1414,707.5C 1413.33,705.833 1413.33,704.167 1414,702.5C 1416.33,699.5 1418.67,696.5 1421,693.5C 1426.09,675.492 1433.25,658.325 1442.5,642C 1439.92,641.218 1437.92,639.718 1436.5,637.5C 1437.75,635.999 1438.75,634.332 1439.5,632.5C 1441.57,631.143 1443.57,629.81 1445.5,628.5 Z M 1452.5,642.5 C 1455.87,642.831 1458.87,643.998 1461.5,646C 1458.2,650.643 1453.87,653.81 1448.5,655.5C 1450.11,651.268 1451.45,646.935 1452.5,642.5 Z M 1445.5,675.5 C 1451.02,675.054 1456.35,675.554 1461.5,677C 1455.07,683.206 1447.4,687.039 1438.5,688.5C 1438.53,682.77 1440.86,678.437 1445.5,675.5 Z"/></g>
<g><path style="opacity:0.932" fill="#19ac54" d="M 590.5,629.5 C 592.693,630.68 595.026,631.68 597.5,632.5C 597.392,645.325 593.559,656.992 586,667.5C 583.239,675.518 580.073,683.352 576.5,691C 583.131,690.555 589.798,690.055 596.5,689.5C 601.941,688.979 606.941,690.145 611.5,693C 604.167,697.97 596.167,701.636 587.5,704C 580.276,706.862 573.442,710.362 567,714.5C 562.416,711.92 558.416,708.587 555,704.5C 554.333,702.833 554.333,701.167 555,699.5C 561.952,681.969 569.285,664.636 577,647.5C 581.334,642.84 584.668,637.506 587,631.5C 588.302,630.915 589.469,630.249 590.5,629.5 Z"/></g>
<g><path style="opacity:0.932" fill="#19ac54" d="M 1010.5,629.5 C 1012.69,630.68 1015.03,631.68 1017.5,632.5C 1017.39,645.325 1013.56,656.992 1006,667.5C 1003.24,675.518 1000.07,683.352 996.5,691C 1003.13,690.555 1009.8,690.055 1016.5,689.5C 1021.94,688.979 1026.94,690.145 1031.5,693C 1024.17,697.97 1016.17,701.636 1007.5,704C 1000.28,706.862 993.442,710.362 987,714.5C 982.416,711.92 978.416,708.587 975,704.5C 974.333,702.833 974.333,701.167 975,699.5C 981.952,681.969 989.285,664.636 997,647.5C 1001.33,642.84 1004.67,637.506 1007,631.5C 1008.3,630.915 1009.47,630.249 1010.5,629.5 Z"/></g>
<g><path style="opacity:0.938" fill="#19ac54" d="M 702.5,631.5 C 711.041,631.866 714.541,636.2 713,644.5C 711.075,645.88 709.241,647.38 707.5,649C 698.043,650.575 688.709,652.575 679.5,655C 678.373,656.753 677.373,658.587 676.5,660.5C 679.785,661.324 683.118,661.824 686.5,662C 688.753,664.425 689.586,667.258 689,670.5C 682.721,672.799 676.221,674.299 669.5,675C 667.308,679.216 664.974,683.382 662.5,687.5C 663,687.833 663.5,688.167 664,688.5C 675.127,686.002 686.294,684.669 697.5,684.5C 699.046,685.684 700.713,686.684 702.5,687.5C 702.333,687.833 702.167,688.167 702,688.5C 697.147,691.79 692.147,694.79 687,697.5C 680.919,699.14 675.086,701.306 669.5,704C 664.238,705.439 658.904,705.772 653.5,705C 649.866,700.891 646.866,696.391 644.5,691.5C 648.884,678.896 655.218,667.396 663.5,657C 661.222,656.014 658.889,655.18 656.5,654.5C 654.661,652.473 654.161,650.14 655,647.5C 656.697,645.301 658.197,642.968 659.5,640.5C 672.085,635.466 685.085,633.133 698.5,633.5C 700.026,633.006 701.359,632.339 702.5,631.5 Z"/></g>
<g><path style="opacity:0.938" fill="#19ac54" d="M 1121.5,631.5 C 1130.04,631.866 1133.54,636.2 1132,644.5C 1130.07,645.88 1128.24,647.38 1126.5,649C 1117.04,650.575 1107.71,652.575 1098.5,655C 1097.37,656.753 1096.37,658.587 1095.5,660.5C 1098.78,661.324 1102.12,661.824 1105.5,662C 1107.75,664.425 1108.59,667.258 1108,670.5C 1101.72,672.799 1095.22,674.299 1088.5,675C 1086.31,679.216 1083.97,683.382 1081.5,687.5C 1082,687.833 1082.5,688.167 1083,688.5C 1094.13,686.002 1105.29,684.669 1116.5,684.5C 1118.05,685.684 1119.71,686.684 1121.5,687.5C 1121.33,687.833 1121.17,688.167 1121,688.5C 1116.15,691.79 1111.15,694.79 1106,697.5C 1099.92,699.14 1094.09,701.306 1088.5,704C 1083.24,705.439 1077.9,705.772 1072.5,705C 1068.87,700.891 1065.87,696.391 1063.5,691.5C 1067.88,678.896 1074.22,667.396 1082.5,657C 1080.22,656.014 1077.89,655.18 1075.5,654.5C 1073.66,652.473 1073.16,650.14 1074,647.5C 1075.7,645.301 1077.2,642.968 1078.5,640.5C 1091.09,635.466 1104.09,633.133 1117.5,633.5C 1119.03,633.006 1120.36,632.339 1121.5,631.5 Z"/></g>
<g><path style="opacity:0.929" fill="#19ac54" d="M 1363.5,634.5 C 1365.25,634.418 1366.25,635.251 1366.5,637C 1359.95,653.306 1354.62,669.973 1350.5,687C 1350.54,688.764 1350.88,690.431 1351.5,692C 1354.42,692.552 1357.09,691.885 1359.5,690C 1365.46,683.265 1370.29,675.765 1374,667.5C 1377.26,657.944 1380.42,648.444 1383.5,639C 1386.28,637.346 1388.94,637.679 1391.5,640C 1394.74,642.225 1396.74,645.225 1397.5,649C 1396.11,652.694 1395.28,656.527 1395,660.5C 1388.25,671.309 1382.58,682.309 1378,693.5C 1373.25,698.115 1368.08,702.115 1362.5,705.5C 1352.02,710.621 1343.52,708.287 1337,698.5C 1334.07,691.998 1333.73,685.331 1336,678.5C 1337.72,666.508 1341.88,655.508 1348.5,645.5C 1353.03,641.079 1358.03,637.412 1363.5,634.5 Z"/></g>
</svg>
